<svg width="291" height="80" viewBox="0 0 291 80" fill="none" xmlns="http://www.w3.org/2000/svg">
<path d="M38.4849 23.3882C38.761 23.3882 38.9849 23.1643 38.9849 22.8882L38.9851 16.0226C32.5828 16.2881 26.8286 19.0608 22.6778 23.3886L38.4849 23.3882ZM31.9846 33.2868C31.9846 33.5629 31.7608 33.7867 31.4847 33.7868L16.8108 33.7873C17.6343 30.7092 19.0544 27.8739 20.9377 25.4149L31.4848 25.4145C31.7609 25.4145 31.9848 25.6384 31.9848 25.9145L31.9846 33.2868ZM57.3207 56.613C53.1714 60.9392 47.4173 63.7118 41.0135 63.9789L41.0136 57.1134C41.0136 56.8373 41.2375 56.6134 41.5136 56.6134L57.3207 56.613ZM38.9855 63.9774C32.5833 63.7122 26.8276 60.9382 22.6786 56.6123L38.4857 56.6119C38.7618 56.6119 38.9857 56.8357 38.9857 57.1119L38.9855 63.9774ZM32.7297 46.7118C32.7297 46.4357 32.9536 46.2118 33.2297 46.2118L63.1876 46.2111C62.3642 49.2892 60.9457 52.1229 59.0608 54.5834L33.2295 54.5841C32.9534 54.5841 32.7295 54.3602 32.7295 54.0841L32.7297 46.7118ZM52.1797 36.3127C52.1797 36.0366 52.4035 35.8127 52.6797 35.8127L63.6382 35.8125C63.8778 37.1714 64.0032 38.5705 64.0032 39.9986C64.0031 41.4267 63.8776 42.8258 63.638 44.1848L52.6809 44.1835C52.4048 44.1834 52.181 43.9597 52.1809 43.6836L52.1797 39.7437V36.3127ZM31.0181 54.0857C31.0181 54.3619 30.7942 54.5857 30.5181 54.5857L20.9386 54.5859C19.0539 52.1254 17.6355 49.2919 16.8122 46.2138L30.5182 46.2135C30.7944 46.2135 31.0183 46.4373 31.0183 46.7135L31.0181 54.0857ZM16.3637 35.8136L49.6118 35.8128C49.888 35.8128 50.1118 36.0367 50.1118 36.3128L50.1117 43.6851C50.1117 43.9612 49.8878 44.1851 49.6117 44.1851L16.3635 44.1859C16.1239 42.827 15.9985 41.4278 15.9986 39.9997C15.9986 38.5717 16.1241 37.1726 16.3637 35.8136ZM34.0143 25.9144C34.0143 25.6383 34.2382 25.4145 34.5143 25.4145L59.0615 25.414C60.9463 27.8745 62.3646 30.7081 63.188 33.7862L34.5142 33.7867C34.238 33.7867 34.0141 33.5629 34.0142 33.2867L34.0143 25.9144ZM41.0146 16.0226C47.4168 16.2878 53.1724 19.0618 57.3215 23.3878L41.5144 23.3881C41.2383 23.3881 41.0144 23.1643 41.0144 22.8881L41.0146 16.0226Z" fill="url(#paint0_linear_302_821)"/>
<path d="M80 40.2019C80 36.8705 80.7191 33.9074 82.1572 31.3127C83.5953 28.6859 85.5927 26.6518 88.1494 25.2103C90.7381 23.7368 93.6623 23 96.922 23C100.917 23 104.336 24.0571 107.181 26.1713C110.025 28.2855 111.927 31.1685 112.885 34.8203H103.873C103.202 33.4109 102.243 32.3377 100.997 31.601C99.7823 30.8642 98.3921 30.4958 96.8262 30.4958C94.3014 30.4958 92.2561 31.3767 90.6901 33.1386C89.1242 34.9004 88.3412 37.2549 88.3412 40.2019C88.3412 43.149 89.1242 45.5035 90.6901 47.2653C92.2561 49.0272 94.3014 49.9081 96.8262 49.9081C98.3921 49.9081 99.7823 49.5397 100.997 48.8029C102.243 48.0662 103.202 46.993 103.873 45.5836H112.885C111.927 49.2354 110.025 52.1184 107.181 54.2326C104.336 56.3148 100.917 57.3559 96.922 57.3559C93.6623 57.3559 90.7381 56.6351 88.1494 55.1936C85.5927 53.7201 83.5953 51.6859 82.1572 49.0912C80.7191 46.4965 80 43.5334 80 40.2019Z" fill="#F7F7F7"/>
<path d="M128.164 57.5C125.543 57.5 123.178 56.9394 121.069 55.8182C118.992 54.6971 117.346 53.0954 116.132 51.0132C114.949 48.9311 114.358 46.4965 114.358 43.7096C114.358 40.9547 114.965 38.5362 116.18 36.454C117.394 34.3398 119.056 32.7221 121.165 31.601C123.274 30.4798 125.639 29.9192 128.26 29.9192C130.88 29.9192 133.245 30.4798 135.355 31.601C137.464 32.7221 139.126 34.3398 140.34 36.454C141.555 38.5362 142.162 40.9547 142.162 43.7096C142.162 46.4645 141.539 48.899 140.292 51.0132C139.078 53.0954 137.4 54.6971 135.259 55.8182C133.15 56.9394 130.785 57.5 128.164 57.5ZM128.164 50.3886C129.73 50.3886 131.056 49.812 132.143 48.6588C133.261 47.5056 133.821 45.8558 133.821 43.7096C133.821 41.5634 133.277 39.9136 132.191 38.7604C131.136 37.6072 129.826 37.0306 128.26 37.0306C126.662 37.0306 125.336 37.6072 124.281 38.7604C123.226 39.8816 122.699 41.5313 122.699 43.7096C122.699 45.8558 123.21 47.5056 124.233 48.6588C125.288 49.812 126.598 50.3886 128.164 50.3886Z" fill="#F7F7F7"/>
<path d="M160.892 30.0153C164.024 30.0153 166.517 31.0404 168.37 33.0905C170.256 35.1086 171.199 37.8955 171.199 41.4513V57.1156H163.049V42.5564C163.049 40.7625 162.586 39.3691 161.659 38.376C160.732 37.383 159.486 36.8865 157.92 36.8865C156.354 36.8865 155.108 37.383 154.181 38.376C153.254 39.3691 152.791 40.7625 152.791 42.5564V57.1156H144.593V30.3036H152.791V33.8593C153.621 32.6741 154.74 31.7451 156.146 31.0724C157.552 30.3677 159.134 30.0153 160.892 30.0153Z" fill="#F7F7F7"/>
<path d="M191.276 30.0153C194.408 30.0153 196.901 31.0404 198.755 33.0905C200.64 35.1086 201.583 37.8955 201.583 41.4513V57.1156H193.434V42.5564C193.434 40.7625 192.97 39.3691 192.043 38.376C191.117 37.383 189.87 36.8865 188.304 36.8865C186.738 36.8865 185.492 37.383 184.565 38.376C183.638 39.3691 183.175 40.7625 183.175 42.5564V57.1156H174.977V30.3036H183.175V33.8593C184.006 32.6741 185.124 31.7451 186.53 31.0724C187.937 30.3677 189.519 30.0153 191.276 30.0153Z" fill="#F7F7F7"/>
<path d="M230.577 43.2772C230.577 44.046 230.529 44.8468 230.433 45.6797H211.881C212.009 47.3454 212.536 48.6267 213.463 49.5237C214.422 50.3886 215.588 50.821 216.963 50.821C219.008 50.821 220.43 49.9561 221.229 48.2263H229.954C229.506 49.9882 228.691 51.5738 227.509 52.9833C226.359 54.3928 224.904 55.4979 223.147 56.2987C221.389 57.0996 219.424 57.5 217.25 57.5C214.63 57.5 212.297 56.9394 210.251 55.8182C208.206 54.6971 206.608 53.0954 205.458 51.0132C204.307 48.9311 203.732 46.4965 203.732 43.7096C203.732 40.9227 204.291 38.4882 205.41 36.406C206.56 34.3238 208.158 32.7221 210.203 31.601C212.249 30.4798 214.598 29.9192 217.25 29.9192C219.839 29.9192 222.14 30.4638 224.153 31.5529C226.167 32.6421 227.733 34.1957 228.851 36.2138C230.002 38.2319 230.577 40.5864 230.577 43.2772ZM222.188 41.1149C222.188 39.7054 221.709 38.5843 220.75 37.7514C219.791 36.9185 218.593 36.5021 217.154 36.5021C215.78 36.5021 214.614 36.9025 213.655 37.7033C212.728 38.5042 212.153 39.6414 211.929 41.1149H222.188Z" fill="#F7F7F7"/>
<path d="M231.354 43.7096C231.354 40.9227 231.913 38.4882 233.032 36.406C234.182 34.3238 235.764 32.7221 237.778 31.601C239.823 30.4798 242.156 29.9192 244.777 29.9192C248.132 29.9192 250.929 30.8001 253.166 32.562C255.435 34.3238 256.921 36.8064 257.624 40.0097H248.899C248.164 37.9596 246.742 36.9345 244.633 36.9345C243.131 36.9345 241.932 37.5272 241.038 38.7124C240.143 39.8656 239.695 41.5313 239.695 43.7096C239.695 45.8879 240.143 47.5696 241.038 48.7549C241.932 49.9081 243.131 50.4847 244.633 50.4847C246.742 50.4847 248.164 49.4596 248.899 47.4095H257.624C256.921 50.5487 255.435 53.0153 253.166 54.8092C250.897 56.6031 248.1 57.5 244.777 57.5C242.156 57.5 239.823 56.9394 237.778 55.8182C235.764 54.6971 234.182 53.0954 233.032 51.0132C231.913 48.9311 231.354 46.4965 231.354 43.7096Z" fill="#F7F7F7"/>
<path d="M275 50.1483V57.1156H270.829C267.857 57.1156 265.54 56.3948 263.878 54.9533C262.217 53.4798 261.386 51.0933 261.386 47.7939V37.1267H258.126V30.3036H261.386V23.7688H269.583V30.3036H274.952V37.1267H269.583V47.89C269.583 48.6908 269.775 49.2674 270.158 49.6198C270.542 49.9721 271.181 50.1483 272.076 50.1483H275Z" fill="#F7F7F7"/>
<defs>
<linearGradient id="paint0_linear_302_821" x1="56.9706" y1="23.0294" x2="23.0295" y2="56.9706" gradientUnits="userSpaceOnUse">
<stop stop-color="#CC00FF"/>
<stop offset="1" stop-color="#8D45FA"/>
</linearGradient>
</defs>
</svg>
