<svg width="300" height="300" viewBox="0 0 300 300" fill="none" xmlns="http://www.w3.org/2000/svg">
<g clip-path="url(#clip0_302_859)">
<path d="M144.203 74.3699C144.48 74.3705 144.705 74.1458 144.705 73.8687L144.63 40.8424C115.489 41.9844 89.3245 54.5459 70.4746 74.2029L144.203 74.3699ZM112.947 121.131C112.948 121.408 112.723 121.633 112.446 121.632L43.876 121.478C47.5925 107.474 54.0274 94.5828 62.5746 83.4089L112.364 83.521C112.64 83.5217 112.862 83.7446 112.863 84.0199L112.947 121.131ZM228.518 225.804C209.675 245.454 183.511 258.015 154.363 259.165L154.288 226.139C154.287 225.861 154.512 225.637 154.789 225.637L228.518 225.804ZM145.132 259.136C115.985 257.863 89.7562 245.175 70.8244 225.44L144.558 225.607C144.833 225.608 145.056 225.831 145.057 226.106L145.132 259.136ZM116.471 178.703C116.47 178.426 116.695 178.201 116.972 178.202L255.117 178.515C251.4 192.518 244.973 205.402 236.418 216.584L117.054 216.313C116.778 216.313 116.555 216.09 116.555 215.814L116.471 178.703ZM204.9 131.568C204.9 131.291 205.124 131.067 205.401 131.067L257.059 131.184C258.164 137.373 258.749 143.743 258.764 150.244C258.779 156.744 258.222 163.112 257.145 169.296L205.49 169.171C205.215 169.171 204.992 168.948 204.991 168.673L204.94 148.96L204.9 131.568ZM108.764 215.8C108.765 216.077 108.54 216.301 108.263 216.301L62.8827 216.198C54.2775 204.978 47.7915 192.064 44.0116 178.044L108.181 178.189C108.456 178.19 108.679 178.413 108.68 178.688L108.764 215.8ZM41.8619 130.697L194.988 131.044C195.264 131.044 195.487 131.267 195.487 131.543L195.571 168.654C195.572 168.931 195.347 169.156 195.07 169.155L41.9481 168.808C40.8433 162.62 40.258 156.25 40.2433 149.749C40.2286 143.248 40.7851 136.881 41.8619 130.697ZM122.102 84.0453C122.101 83.7683 122.326 83.5436 122.603 83.5442L236.117 83.8019C244.723 95.0219 251.209 107.935 254.989 121.956L122.685 121.655C122.409 121.655 122.186 121.432 122.186 121.157L122.102 84.0453ZM153.868 40.8635C183.015 42.1374 209.244 54.8248 228.176 74.5601L154.442 74.393C154.167 74.3924 153.944 74.1694 153.943 73.8942L153.868 40.8635Z" fill="url(#paint0_linear_302_859)"/>
</g>
<defs>
<linearGradient id="paint0_linear_302_859" x1="226.575" y1="72.9253" x2="72.4254" y2="227.075" gradientUnits="userSpaceOnUse">
<stop stop-color="#CC00FF"/>
<stop offset="1" stop-color="#8D45FA"/>
</linearGradient>
<clipPath id="clip0_302_859">
<rect width="300" height="300" fill="white"/>
</clipPath>
</defs>
</svg>
