<svg width="282" height="80" viewBox="0 0 282 80" fill="none" xmlns="http://www.w3.org/2000/svg">
<path d="M38.6822 16.9775C35.6035 27.4041 27.3936 35.6236 16.9796 38.6937C15.6735 39.0818 15.6735 40.9182 16.9796 41.3063C27.3878 44.3764 35.6035 52.5959 38.6822 63.0225C39.067 64.3258 40.9271 64.3258 41.3178 63.0225C44.3965 52.5959 52.6064 44.3764 63.0204 41.3063C64.3265 40.9182 64.3265 39.0818 63.0204 38.6937C52.6122 35.6236 44.3965 27.4041 41.3178 16.9775C40.933 15.6742 39.0729 15.6742 38.6822 16.9775Z" fill="url(#paint0_linear_302_813)"/>
<path d="M100.256 21.3037C103.744 21.3037 106.4 22.1037 108.224 23.7037C110.048 25.2717 110.96 27.3197 110.96 29.8477C110.96 30.5837 110.896 31.2717 110.768 31.9117C110.384 34.1517 109.408 36.1517 107.84 37.9117C106.272 39.6717 104.176 40.9197 101.552 41.6557L106.976 54.9997H97.7121L92.9601 42.2797H90.9921L88.7361 54.9997H80.5281L86.4801 21.3037H100.256ZM102.368 32.2477C102.432 31.7357 102.464 31.3997 102.464 31.2397C102.464 30.2157 102.128 29.4317 101.456 28.8877C100.816 28.3117 99.8561 28.0237 98.5761 28.0237H93.4881L92.0001 36.4717H97.0881C98.5921 36.4717 99.7761 36.1037 100.64 35.3677C101.536 34.6317 102.112 33.5917 102.368 32.2477Z" fill="#F7F7F7"/>
<path d="M126.625 27.8317C130.081 27.8317 132.817 28.7757 134.833 30.6637C136.881 32.5197 137.905 35.0637 137.905 38.2957C137.905 39.3517 137.825 40.2957 137.665 41.1277C137.537 41.8637 137.345 42.6477 137.089 43.4797H118.513C118.481 43.6717 118.465 43.9757 118.465 44.3917C118.465 45.7997 118.849 46.8717 119.617 47.6077C120.385 48.3437 121.409 48.7117 122.689 48.7117C124.737 48.7117 126.305 47.8477 127.393 46.1197H136.129C134.977 48.8397 133.105 51.0637 130.513 52.7917C127.921 54.5197 125.009 55.3837 121.777 55.3837C118.321 55.3837 115.553 54.4237 113.473 52.5037C111.425 50.5837 110.401 47.9757 110.401 44.6797C110.401 43.6877 110.497 42.6637 110.689 41.6077C111.169 38.8237 112.161 36.3917 113.665 34.3117C115.169 32.2317 117.041 30.6317 119.281 29.5117C121.521 28.3917 123.969 27.8317 126.625 27.8317ZM129.601 39.3037C129.665 38.8557 129.697 38.5517 129.697 38.3917C129.697 37.1117 129.297 36.1357 128.497 35.4637C127.697 34.7597 126.641 34.4077 125.329 34.4077C123.921 34.4077 122.673 34.8397 121.585 35.7037C120.529 36.5357 119.761 37.7357 119.281 39.3037H129.601Z" fill="#F7F7F7"/>
<path d="M158.651 27.9277C161.339 27.9277 163.451 28.6797 164.987 30.1837C166.523 31.6877 167.291 33.7837 167.291 36.4717C167.291 37.3677 167.195 38.3277 167.003 39.3517L164.219 54.9997H156.059L158.651 40.4557C158.747 39.9117 158.795 39.4317 158.795 39.0157C158.795 37.6717 158.411 36.6317 157.643 35.8957C156.907 35.1597 155.867 34.7917 154.523 34.7917C152.923 34.7917 151.579 35.2877 150.491 36.2797C149.403 37.2717 148.699 38.6637 148.379 40.4557V40.2157L145.787 54.9997H137.579L142.283 28.2157H150.491L149.867 31.8157C150.923 30.6317 152.203 29.6877 153.707 28.9837C155.243 28.2797 156.891 27.9277 158.651 27.9277Z" fill="#F7F7F7"/>
<path d="M180.242 55.3837C177.938 55.3837 175.89 54.9197 174.098 53.9917C172.306 53.0637 170.914 51.7517 169.922 50.0557C168.962 48.3597 168.482 46.3917 168.482 44.1517C168.482 41.1117 169.202 38.3437 170.642 35.8477C172.082 33.3517 174.066 31.3997 176.594 29.9917C179.122 28.5517 181.938 27.8317 185.042 27.8317C187.346 27.8317 189.394 28.3117 191.186 29.2717C193.01 30.1997 194.418 31.5117 195.41 33.2077C196.402 34.9037 196.898 36.8717 196.898 39.1117C196.898 42.1837 196.162 44.9677 194.69 47.4637C193.25 49.9277 191.25 51.8637 188.69 53.2717C186.162 54.6797 183.346 55.3837 180.242 55.3837ZM181.394 48.3277C182.738 48.3277 183.938 47.9277 184.994 47.1277C186.082 46.2957 186.914 45.2397 187.49 43.9597C188.098 42.6477 188.402 41.2877 188.402 39.8797C188.402 38.2797 187.97 37.0477 187.106 36.1837C186.242 35.3197 185.154 34.8877 183.842 34.8877C182.466 34.8877 181.25 35.3037 180.194 36.1357C179.17 36.9357 178.37 37.9917 177.794 39.3037C177.218 40.6157 176.93 41.9917 176.93 43.4317C176.93 44.9997 177.346 46.2157 178.178 47.0797C179.01 47.9117 180.082 48.3277 181.394 48.3277Z" fill="#F7F7F7"/>
<path d="M239.845 28.2157L227.845 54.9997H218.773L217.621 37.6237L210.181 54.9997H201.157L198.613 28.2157H206.821L207.205 47.3677L215.125 28.2157H223.813L225.013 47.3677L232.117 28.2157H239.845Z" fill="#F7F7F7"/>
<path d="M257.375 27.9277C260.063 27.9277 262.175 28.6797 263.711 30.1837C265.247 31.6877 266.015 33.7837 266.015 36.4717C266.015 37.3677 265.919 38.3277 265.727 39.3517L262.943 54.9997H254.783L257.375 40.4557C257.471 39.9117 257.519 39.4317 257.519 39.0157C257.519 37.6717 257.135 36.6317 256.367 35.8957C255.631 35.1597 254.591 34.7917 253.247 34.7917C251.647 34.7917 250.303 35.2877 249.215 36.2797C248.127 37.2717 247.423 38.6637 247.103 40.4557V40.2157L244.511 54.9997H236.303L241.007 28.2157H249.215L248.591 31.8157C249.647 30.6317 250.927 29.6877 252.431 28.9837C253.967 28.2797 255.615 27.9277 257.375 27.9277Z" fill="#F7F7F7"/>
<defs>
<linearGradient id="paint0_linear_302_813" x1="40" y1="16" x2="40" y2="64" gradientUnits="userSpaceOnUse">
<stop stop-color="#21FFB4"/>
<stop offset="1" stop-color="#0080FF"/>
</linearGradient>
</defs>
</svg>
