<svg width="387" height="72" viewBox="0 0 387 72" fill="none" xmlns="http://www.w3.org/2000/svg">
<path d="M64.0241 22.425C64.0241 22.0389 63.8018 21.6872 63.453 21.5216L58.6176 19.226C58.2776 19.0646 57.8757 19.1077 57.5778 19.3376L42.1841 31.2162L48.1613 35.7825L56.6615 29.2232V45.7598L22.3679 19.5065C22.0698 19.2783 21.669 19.2362 21.33 19.3977L16.57 21.6648C16.2218 21.8306 16 22.1819 16 22.5676V52.536C16 52.922 16.2222 53.2736 16.5709 53.4392L21.4064 55.7366C21.7465 55.8982 22.1484 55.855 22.4465 55.625L37.7347 43.8274L31.7575 39.2612L23.3626 45.7396V29.3445L57.6416 55.6055C57.9398 55.8339 58.3408 55.876 58.6799 55.7144L63.4542 53.4395C63.8024 53.2737 64.0241 52.9224 64.0241 52.5368V22.425Z" fill="url(#paint0_linear_302_841)"/>
<path d="M93.1907 54.3052C90.7255 54.3052 88.5164 53.9101 86.5634 53.12C84.6104 52.3299 83.0416 51.1605 81.857 49.6119C80.7044 48.0632 80.0961 46.1985 80.0321 44.0178H88.7725C88.9006 45.2504 89.3328 46.1985 90.0691 46.8622C90.8055 47.4943 91.766 47.8104 92.9506 47.8104C94.1672 47.8104 95.1277 47.5417 95.832 47.0044C96.5364 46.4356 96.8886 45.6612 96.8886 44.6815C96.8886 43.8598 96.6004 43.1802 96.0241 42.643C95.4799 42.1057 94.7915 41.6632 93.9591 41.3156C93.1587 40.9679 92.0061 40.5728 90.5014 40.1304C88.3243 39.4667 86.5474 38.803 85.1707 38.1393C83.794 37.4756 82.6094 36.4958 81.6169 35.2C80.6244 33.9042 80.1282 32.2133 80.1282 30.1274C80.1282 27.0301 81.2647 24.6123 83.5379 22.8741C85.811 21.1042 88.7725 20.2193 92.4223 20.2193C96.1362 20.2193 99.1297 21.1042 101.403 22.8741C103.676 24.6123 104.893 27.0459 105.053 30.1748H96.1682C96.1042 29.1002 95.704 28.2627 94.9676 27.6622C94.2312 27.0301 93.2868 26.7141 92.1342 26.7141C91.1417 26.7141 90.3413 26.9827 89.733 27.52C89.1247 28.0257 88.8205 28.7684 88.8205 29.7481C88.8205 30.8227 89.3328 31.6602 90.3573 32.2607C91.3818 32.8612 92.9826 33.5091 95.1597 34.2044C97.3368 34.9314 99.0977 35.6267 100.442 36.2904C101.819 36.9541 103.004 37.918 103.996 39.1822C104.989 40.4464 105.485 42.0741 105.485 44.0652C105.485 45.9615 104.989 47.684 103.996 49.2326C103.036 50.7812 101.627 52.0138 99.77 52.9304C97.9131 53.8469 95.72 54.3052 93.1907 54.3052Z" fill="#111111"/>
<path d="M147.085 27.52L139.833 53.9733H130.757L126.531 36.8119L122.16 53.9733H113.132L105.832 27.52H114.044L117.838 46.4356L122.353 27.52H131.045L135.607 46.3407L139.353 27.52H147.085Z" fill="#111111"/>
<path d="M152.426 24.7704C150.985 24.7704 149.8 24.3595 148.872 23.5378C147.976 22.6844 147.527 21.6415 147.527 20.4089C147.527 19.1447 147.976 18.1017 148.872 17.28C149.8 16.4267 150.985 16 152.426 16C153.835 16 154.987 16.4267 155.884 17.28C156.812 18.1017 157.276 19.1447 157.276 20.4089C157.276 21.6415 156.812 22.6844 155.884 23.5378C154.987 24.3595 153.835 24.7704 152.426 24.7704ZM156.508 27.52V53.9733H148.296V27.52H156.508Z" fill="#111111"/>
<path d="M175.474 47.0993V53.9733H171.296C168.318 53.9733 165.997 53.2622 164.332 51.84C162.667 50.3862 161.835 48.0316 161.835 44.7763V34.2519H158.569V27.52H161.835V21.0726H170.047V27.52H175.426V34.2519H170.047V44.8711C170.047 45.6612 170.239 46.2301 170.623 46.5778C171.007 46.9254 171.648 47.0993 172.544 47.0993H175.474Z" fill="#111111"/>
<path d="M176.494 40.7467C176.494 37.997 177.054 35.5951 178.175 33.5407C179.328 31.4864 180.912 29.9062 182.929 28.8C184.978 27.6938 187.316 27.1407 189.941 27.1407C193.303 27.1407 196.104 28.0099 198.345 29.7481C200.618 31.4864 202.107 33.9358 202.811 37.0963H194.071C193.335 35.0736 191.91 34.0622 189.797 34.0622C188.292 34.0622 187.091 34.6469 186.195 35.8163C185.299 36.9541 184.85 38.5975 184.85 40.7467C184.85 42.8958 185.299 44.5551 186.195 45.7244C187.091 46.8622 188.292 47.4311 189.797 47.4311C191.91 47.4311 193.335 46.4198 194.071 44.397H202.811C202.107 47.4943 200.618 49.9279 198.345 51.6978C196.072 53.4677 193.271 54.3526 189.941 54.3526C187.316 54.3526 184.978 53.7995 182.929 52.6933C180.912 51.5872 179.328 50.0069 178.175 47.9526C177.054 45.8983 176.494 43.4963 176.494 40.7467Z" fill="#111111"/>
<path d="M221.755 27.2356C224.829 27.2356 227.294 28.2469 229.151 30.2696C231.008 32.2607 231.936 35.0104 231.936 38.5185V53.9733H223.772V39.6089C223.772 37.839 223.308 36.4642 222.38 35.4844C221.451 34.5047 220.203 34.0148 218.634 34.0148C217.065 34.0148 215.816 34.5047 214.888 35.4844C213.959 36.4642 213.495 37.839 213.495 39.6089V53.9733H205.283V18.8919H213.495V31.0756C214.328 29.9062 215.464 28.9738 216.905 28.2785C218.346 27.5832 219.962 27.2356 221.755 27.2356Z" fill="#111111"/>
<path d="M243.934 31.2652C244.703 30.0326 245.807 29.037 247.248 28.2785C248.689 27.52 250.337 27.1407 252.194 27.1407C254.403 27.1407 256.404 27.6938 258.197 28.8C259.99 29.9062 261.399 31.4864 262.423 33.5407C263.48 35.5951 264.008 37.9812 264.008 40.6993C264.008 43.4173 263.48 45.8193 262.423 47.9052C261.399 49.9595 259.99 51.5556 258.197 52.6933C256.404 53.7995 254.403 54.3526 252.194 54.3526C250.305 54.3526 248.657 53.9891 247.248 53.2622C245.839 52.5037 244.735 51.5082 243.934 50.2756V53.9733H235.722V18.8919H243.934V31.2652ZM255.652 40.6993C255.652 38.6765 255.076 37.0963 253.923 35.9585C252.803 34.7891 251.41 34.2044 249.745 34.2044C248.112 34.2044 246.72 34.7891 245.567 35.9585C244.446 37.1279 243.886 38.724 243.886 40.7467C243.886 42.7694 244.446 44.3654 245.567 45.5348C246.72 46.7042 248.112 47.2889 249.745 47.2889C251.378 47.2889 252.771 46.7042 253.923 45.5348C255.076 44.3338 255.652 42.722 255.652 40.6993Z" fill="#111111"/>
<path d="M278.594 54.3526C275.968 54.3526 273.599 53.7995 271.486 52.6933C269.405 51.5872 267.756 50.0069 266.54 47.9526C265.355 45.8983 264.763 43.4963 264.763 40.7467C264.763 38.0286 265.371 35.6425 266.588 33.5882C267.804 31.5022 269.469 29.9062 271.582 28.8C273.695 27.6938 276.064 27.1407 278.69 27.1407C281.315 27.1407 283.684 27.6938 285.797 28.8C287.91 29.9062 289.575 31.5022 290.792 33.5882C292.008 35.6425 292.617 38.0286 292.617 40.7467C292.617 43.4647 291.992 45.8667 290.744 47.9526C289.527 50.0069 287.846 51.5872 285.701 52.6933C283.588 53.7995 281.219 54.3526 278.594 54.3526ZM278.594 47.3363C280.163 47.3363 281.491 46.7674 282.58 45.6296C283.7 44.4919 284.261 42.8642 284.261 40.7467C284.261 38.6291 283.716 37.0015 282.628 35.8637C281.571 34.7259 280.259 34.157 278.69 34.157C277.089 34.157 275.76 34.7259 274.704 35.8637C273.647 36.9699 273.119 38.5975 273.119 40.7467C273.119 42.8642 273.631 44.4919 274.656 45.6296C275.712 46.7674 277.025 47.3363 278.594 47.3363Z" fill="#111111"/>
<path d="M293.42 40.6993C293.42 37.9812 293.932 35.5951 294.956 33.5407C296.013 31.4864 297.438 29.9062 299.231 28.8C301.023 27.6938 303.024 27.1407 305.234 27.1407C307.123 27.1407 308.771 27.52 310.18 28.2785C311.621 29.037 312.725 30.0326 313.494 31.2652V27.52H321.706V53.9733H313.494V50.2282C312.693 51.4607 311.573 52.4563 310.132 53.2148C308.723 53.9733 307.075 54.3526 305.186 54.3526C303.008 54.3526 301.023 53.7995 299.231 52.6933C297.438 51.5556 296.013 49.9595 294.956 47.9052C293.932 45.8193 293.42 43.4173 293.42 40.6993ZM313.494 40.7467C313.494 38.724 312.917 37.1279 311.765 35.9585C310.644 34.7891 309.268 34.2044 307.635 34.2044C306.002 34.2044 304.609 34.7891 303.457 35.9585C302.336 37.0963 301.776 38.6765 301.776 40.6993C301.776 42.722 302.336 44.3338 303.457 45.5348C304.609 46.7042 306.002 47.2889 307.635 47.2889C309.268 47.2889 310.644 46.7042 311.765 45.5348C312.917 44.3654 313.494 42.7694 313.494 40.7467Z" fill="#111111"/>
<path d="M333.938 31.9289C334.899 30.4751 336.099 29.3373 337.54 28.5156C338.981 27.6622 340.581 27.2356 342.342 27.2356V35.8163H340.085C338.036 35.8163 336.499 36.2588 335.475 37.1437C334.45 37.997 333.938 39.5141 333.938 41.6948V53.9733H325.726V27.52H333.938V31.9289Z" fill="#111111"/>
<path d="M342.714 40.6993C342.714 37.9812 343.226 35.5951 344.251 33.5407C345.307 31.4864 346.732 29.9062 348.525 28.8C350.318 27.6938 352.319 27.1407 354.528 27.1407C356.289 27.1407 357.889 27.5042 359.33 28.2311C360.803 28.958 361.955 29.9378 362.788 31.1704V18.8919H371V53.9733H362.788V50.1807C362.019 51.4449 360.915 52.4563 359.474 53.2148C358.065 53.9733 356.417 54.3526 354.528 54.3526C352.319 54.3526 350.318 53.7995 348.525 52.6933C346.732 51.5556 345.307 49.9595 344.251 47.9052C343.226 45.8193 342.714 43.4173 342.714 40.6993ZM362.788 40.7467C362.788 38.724 362.212 37.1279 361.059 35.9585C359.938 34.7891 358.562 34.2044 356.929 34.2044C355.296 34.2044 353.903 34.7891 352.751 35.9585C351.63 37.0963 351.07 38.6765 351.07 40.6993C351.07 42.722 351.63 44.3338 352.751 45.5348C353.903 46.7042 355.296 47.2889 356.929 47.2889C358.562 47.2889 359.938 46.7042 361.059 45.5348C362.212 44.3654 362.788 42.7694 362.788 40.7467Z" fill="#111111"/>
<defs>
<linearGradient id="paint0_linear_302_841" x1="64.0241" y1="36.7407" x2="14.5004" y2="35.2204" gradientUnits="userSpaceOnUse">
<stop stop-color="#F2CB29"/>
<stop offset="1" stop-color="#F2462A"/>
</linearGradient>
</defs>
</svg>
